<svg width="20" height="19" viewBox="0 0 20 19" fill="none" xmlns="http://www.w3.org/2000/svg">
<path fill-rule="evenodd" clip-rule="evenodd" d="M8.81237 14.2498C5.53848 14.2498 2.87496 11.5863 2.87496 8.31237C2.87496 5.03848 5.53848 2.37496 8.81237 2.37496C12.0863 2.37496 14.7498 5.03848 14.7498 8.31237C14.7498 11.5863 12.0863 14.2498 8.81237 14.2498ZM19.1518 16.9727L15.4563 13.301C15.454 13.2986 15.4516 13.2986 15.4492 13.2962C16.4966 11.9045 17.1247 10.1827 17.1247 8.31237C17.1247 3.72988 13.3949 0 8.81237 0C4.22869 0 0.5 3.72988 0.5 8.31237C0.5 12.8949 4.22869 16.6247 8.81237 16.6247C10.6827 16.6247 12.4045 15.9966 13.795 14.9504C13.7974 14.9528 13.7974 14.9551 13.7998 14.9575L17.4727 18.6518C17.7042 18.8833 18.0082 18.9997 18.3122 18.9997C18.6162 18.9997 18.9202 18.8833 19.1518 18.6518C19.6161 18.1875 19.6161 17.437 19.1518 16.9727Z" fill="black"/>
</svg>
