<svg width="79" height="59" viewBox="0 0 79 59" fill="none" xmlns="http://www.w3.org/2000/svg">
<path d="M8.45216 40.1104C5.8226 40.1104 3.75652 39.5995 2.25391 38.5775C0.751304 37.5982 0 36.1931 0 34.3621C0 32.4886 0.488347 30.7641 1.46504 29.1886C2.44174 27.5706 3.70017 26.1867 5.24034 25.0371C6.81808 23.8448 8.45216 22.9294 10.1426 22.2907C11.8706 21.6094 13.4671 21.2687 14.9322 21.2687C15.6835 21.2687 16.0591 21.3965 16.0591 21.652C16.0591 22.0352 15.6647 22.2268 14.8758 22.2268C13.4859 22.2268 11.9645 22.61 10.3116 23.3765C8.69634 24.1429 7.25008 25.2074 5.97286 26.57C4.9586 27.5919 4.18852 28.6351 3.6626 29.6996C3.17426 30.7215 2.93008 31.6796 2.93008 32.5737C2.93008 33.8937 3.47478 35.0008 4.56417 35.895C5.65356 36.7466 7.28764 37.1724 9.46642 37.1724C10.7436 37.1724 12.0396 37.0659 13.3544 36.853C14.6692 36.5976 15.8525 36.3208 16.9043 36.0227C17.9937 35.7247 18.8202 35.4905 19.3836 35.3202C20.7735 34.8092 22.1635 34.1918 23.5534 33.4679C24.9808 32.7441 26.2581 31.935 27.385 31.0409C28.512 30.1041 29.3384 29.1673 29.8643 28.2306C30.1648 27.7196 30.3714 27.23 30.4841 26.7616C30.6344 26.2932 30.7095 25.8461 30.7095 25.4203C30.7095 24.2281 30.24 23.2274 29.3008 22.4184C28.3617 21.5668 27.1596 20.8004 25.6946 20.1191C24.2295 19.4378 22.6706 18.7991 21.0177 18.203C19.3648 17.5643 17.8059 16.9043 16.3409 16.223C14.8758 15.5417 13.6737 14.7753 12.7346 13.9237C11.7955 13.0295 11.3259 11.965 11.3259 10.7302C11.3259 9.32503 11.7767 8.06892 12.6782 6.96184C13.6174 5.81218 14.8007 4.81155 16.2282 3.95995C17.6932 3.06577 19.2521 2.3419 20.905 1.78836C22.5579 1.19224 24.1356 0.745152 25.6382 0.447093C27.1408 0.149031 28.3805 0 29.3572 0C33.4894 0 35.5554 1.17095 35.5554 3.51286C35.5554 4.44962 35.2174 5.53541 34.5412 6.77023C34.2407 7.40893 33.8087 8.02634 33.2452 8.62246C32.6817 9.176 32.2497 9.45278 31.9492 9.45278C31.7238 9.45278 31.6111 9.30375 31.6111 9.00568C31.6111 8.87794 31.8177 8.62246 32.2309 8.23924C32.6441 7.81344 33.0574 7.30248 33.4706 6.70636C33.8838 6.11024 34.0904 5.51412 34.0904 4.918C34.0904 4.02382 33.6396 3.34253 32.738 2.87416C31.8741 2.40578 30.7283 2.17159 29.3008 2.17159C28.6247 2.17159 27.648 2.29933 26.3708 2.55481C25.0935 2.76771 23.7036 3.12964 22.201 3.6406C20.6984 4.15156 19.2522 4.83284 17.8622 5.68444C15.2702 7.30248 13.9742 8.68633 13.9742 9.836C13.9742 10.6876 14.7068 11.4966 16.1718 12.2631C17.2612 12.8166 18.5196 13.3914 19.9471 13.9876C21.3746 14.5837 22.8208 15.2224 24.2859 15.9037C25.7509 16.5849 27.1033 17.3514 28.3429 18.203C29.6201 19.0546 30.6344 20.0126 31.3857 21.0771C32.1746 22.0991 32.569 23.27 32.569 24.59C32.569 26.3783 31.705 28.2093 29.977 30.0828C28.6247 31.5305 27.0469 32.8718 25.2438 34.1066C23.4782 35.3414 21.6 36.406 19.609 37.3001C17.6556 38.1943 15.721 38.8756 13.8052 39.344C11.8894 39.8549 10.105 40.1104 8.45216 40.1104Z" fill="black"/>
<path d="M37.6302 19.161C37.0667 18.9907 36.4281 18.6501 35.7144 18.1391C35.0006 17.5856 34.3808 16.9043 33.8549 16.0953C33.329 15.2437 33.066 14.3069 33.066 13.285C33.066 12.8166 33.1411 12.3482 33.2914 11.8798C33.2914 11.8373 33.2914 11.6882 33.2914 11.4327C33.329 11.1773 33.3665 10.9644 33.4041 10.794C33.8173 8.66504 34.7752 6.91926 36.2778 5.5567C37.7804 4.15156 39.6211 3.06577 41.7999 2.29932C43.9787 1.53288 46.2514 1.0645 48.618 0.894181C49.0688 0.851602 49.5196 0.830312 49.9703 0.830312C50.4211 0.830312 50.8719 0.830312 51.3227 0.830312C53.9522 0.830312 56.563 1.02192 59.155 1.40514C61.747 1.78836 64.0948 2.17158 66.1985 2.55481C68.3397 2.89545 70.0301 3.08706 71.2698 3.12964C72.3216 1.89481 73.0917 1.21353 73.58 1.08579C73.6927 1.04321 73.8618 1.02192 74.0872 1.02192C74.5004 1.02192 74.876 1.14966 75.2141 1.40514C75.5522 1.61804 75.7213 1.93739 75.7213 2.36319C75.7213 2.74641 75.571 3.10835 75.2705 3.44899C75.0075 3.74705 74.5943 4.10898 74.0308 4.53478C73.4674 4.96058 72.9227 5.49283 72.3967 6.13153C71.6454 6.98313 70.9693 7.94118 70.3682 9.00568C69.7672 10.0702 69.4667 11.0921 69.4667 12.0714C69.4667 12.7953 69.6169 13.4127 69.9174 13.9237C69.9926 14.0088 70.0301 14.094 70.0301 14.1792C70.0301 14.5198 69.8799 14.6901 69.5794 14.6901C69.3164 14.6901 69.0347 14.5198 68.7341 14.1792C68.4336 13.7534 68.2834 12.8379 68.2834 11.4327C68.2834 10.5811 68.3585 9.66568 68.5087 8.68633C68.659 7.70699 68.922 6.81281 69.2976 6.00379C69.4479 5.70573 69.6545 5.36509 69.9174 4.98187C70.218 4.55607 70.4434 4.23672 70.5936 4.02382C67.8889 3.98124 65.1467 3.81092 62.3668 3.51286C59.587 3.2148 56.8448 3.06577 54.1401 3.06577C52.8629 3.06577 51.4354 3.17222 49.8576 3.38512C48.2799 3.55544 46.6646 3.8535 45.0117 4.2793C43.3589 4.7051 41.8187 5.32251 40.3912 6.13153C38.9637 6.89797 37.7429 7.85602 36.7286 9.00568C35.7144 10.1553 35.057 11.5392 34.7564 13.1572C34.7189 13.3276 34.6813 13.4766 34.6437 13.6043C34.6437 13.7321 34.6437 13.8598 34.6437 13.9876C34.6437 14.7966 34.8504 15.4779 35.2636 16.0314C35.7144 16.5849 36.2215 17.0533 36.785 17.4365C37.3484 17.7772 37.7804 18.0965 38.081 18.3946C38.3439 18.5649 38.4754 18.7352 38.4754 18.9055C38.4754 19.0759 38.3815 19.1823 38.1937 19.2249C38.0434 19.2675 37.8556 19.2462 37.6302 19.161ZM43.2086 39.6633C43.0959 39.6633 42.8705 39.6208 42.5324 39.5356C42.1943 39.4504 41.875 39.344 41.5745 39.2162C41.274 39.0885 41.105 38.9395 41.0674 38.7691C40.9547 37.9601 41.1237 36.8105 41.5745 35.3202C42.0629 33.7873 42.6827 32.1054 43.434 30.2744C44.2229 28.4435 45.0305 26.6125 45.857 24.7816C46.721 22.9507 47.5098 21.3113 48.2236 19.8636C48.9373 18.3733 49.4632 17.2449 49.8013 16.4785C50.1018 15.7546 50.2521 15.1585 50.2521 14.6901C50.2521 14.4772 50.2333 14.3282 50.1957 14.243C50.1957 14.1153 50.1769 14.0088 50.1394 13.9237C50.2145 13.4127 50.4963 12.7314 50.9846 11.8798C51.4729 11.0282 52.074 10.1766 52.7877 9.32504C53.5015 8.47343 54.2528 7.77086 55.0416 7.21732C55.8681 6.6212 56.6569 6.32314 57.4082 6.32314C57.6336 6.32314 58.0281 6.42959 58.5915 6.64249C59.155 6.81281 59.6622 7.11087 60.1129 7.53667C60.5637 7.96247 60.7515 8.51601 60.6764 9.1973C60.4135 8.9844 60.1881 8.87794 60.0002 8.87794C59.1362 8.87794 58.1971 9.34632 57.1828 10.2831C56.1686 11.2198 55.1168 12.476 54.0274 14.0514C52.9756 15.6269 51.9237 17.3514 50.8719 19.2249C49.8576 21.0984 48.8997 22.9932 47.9982 24.9093C47.0966 26.7829 46.3077 28.5286 45.6316 30.1467C44.9554 31.7221 44.4295 32.9995 44.0538 33.9789C43.9036 34.4047 43.7909 34.7879 43.7157 35.1286C43.6406 35.4692 43.603 35.746 43.603 35.9589C43.603 36.555 43.7909 36.853 44.1665 36.853C44.4295 36.853 44.7112 36.7466 45.0117 36.5337C45.3123 36.2782 45.594 35.9802 45.857 35.6395C46.2702 35.086 46.6458 34.575 46.9839 34.1066C47.322 33.5957 47.6225 33.3828 47.8855 33.4679C47.923 33.5105 47.9418 33.5744 47.9418 33.6595C47.9418 33.915 47.8291 34.2131 47.6037 34.5537C47.3783 34.8944 47.2469 35.086 47.2093 35.1286C46.9088 35.5544 46.5331 36.1292 46.0823 36.853C45.6691 37.5769 45.2183 38.2156 44.73 38.7691C44.2416 39.3653 43.7345 39.6633 43.2086 39.6633Z" fill="black"/>
<path d="M62.2224 39.4717C62.0252 39.5037 61.828 39.5196 61.6308 39.5196C61.4336 39.5196 61.2364 39.5196 61.0392 39.5196C59.2642 39.5196 57.7851 39.1843 56.6018 38.5137C55.4466 37.875 54.5732 37.0447 53.9816 36.0227C53.4181 34.9689 53.1364 33.8671 53.1364 32.7175C53.1364 31.2804 53.559 29.8752 54.4042 28.502C55.2776 27.1288 56.5313 26.0909 58.1654 25.3884C59.1233 24.9732 60.039 24.7177 60.9124 24.6219C61.8139 24.5261 62.6451 24.4782 63.4058 24.4782C64.1664 24.4463 64.8004 24.3984 65.3075 24.3345C64.6313 23.6639 63.9411 22.8495 63.2367 21.8915C62.5324 20.9015 61.9407 19.8317 61.4618 18.682C60.9828 17.5323 60.7433 16.3986 60.7433 15.2809C60.7433 14.77 60.7997 14.275 60.9124 13.7959C61.0251 13.3169 61.2223 12.8698 61.504 12.4547C61.8139 11.9756 62.2929 11.5765 62.9409 11.2571C63.6171 10.9058 64.3496 10.6344 65.1385 10.4428C65.9555 10.2512 66.7021 10.1553 67.3783 10.1553C68.2517 10.1553 69.111 10.3949 69.9562 10.8739C70.8296 11.3529 71.5339 11.9597 72.0692 12.6942C72.2946 12.3748 72.5482 12.0874 72.8299 11.8319C73.1117 11.5765 73.4075 11.4327 73.7174 11.4008C73.7737 11.3689 73.8583 11.3529 73.971 11.3529C74.1964 11.3529 74.3795 11.4168 74.5203 11.5445C74.6894 11.6403 74.7739 11.784 74.7739 11.9756C74.7739 12.1353 74.6894 12.295 74.5203 12.4547C74.4077 12.6463 74.1964 12.8539 73.8864 13.0774C73.6047 13.3009 73.3089 13.5884 72.999 13.9396C72.6045 14.3548 72.2523 14.8338 71.9424 15.3767C71.6325 15.8877 71.4776 16.4146 71.4776 16.9575C71.4776 17.2769 71.5621 17.5802 71.7311 17.8677C71.7593 17.8996 71.7734 17.9475 71.7734 18.0114C71.7734 18.171 71.6889 18.2509 71.5198 18.2509C71.379 18.2509 71.2381 18.171 71.0972 18.0114C70.9564 17.7878 70.8859 17.3088 70.8859 16.5743C70.8859 16.1272 70.9282 15.6641 71.0127 15.1851C71.0972 14.6742 71.2381 14.2111 71.4353 13.7959C71.4635 13.764 71.4776 13.7321 71.4776 13.7001C71.5057 13.6363 71.5339 13.5884 71.5621 13.5564C71.1113 12.9816 70.4774 12.4547 69.6604 11.9756C68.8715 11.4966 68.0544 11.2571 67.2092 11.2571C66.8993 11.2571 66.5894 11.305 66.2795 11.4008C65.3216 11.6244 64.6595 12.1353 64.2932 12.9337C63.927 13.7321 63.7438 14.6422 63.7438 15.6641C63.7438 16.5903 63.8565 17.5643 64.0819 18.5862C64.3355 19.6081 64.6454 20.5502 65.0117 21.4124C65.3779 22.2747 65.7442 22.9773 66.1104 23.5202C66.4485 24.0311 66.6176 24.3984 66.6176 24.6219C66.6176 24.8774 66.364 25.053 65.8569 25.1488C64.5609 25.3085 63.2931 25.6438 62.0534 26.1548C60.8419 26.6658 59.8699 27.1288 59.1374 27.544C57.8414 28.2785 56.8694 29.1727 56.2214 30.2265C55.5734 31.2804 55.2494 32.3183 55.2494 33.3402C55.2494 34.7134 55.7847 35.9269 56.8553 36.9808C57.9259 38.0027 59.4473 38.5137 61.4195 38.5137C61.6167 38.5137 61.8139 38.5137 62.0111 38.5137C62.2084 38.5137 62.4056 38.4977 62.6028 38.4658C64.3214 38.2742 65.9555 37.8111 67.5051 37.0766C69.0828 36.3421 70.4774 35.2882 71.6889 33.915C72.9004 32.5099 73.7878 30.7215 74.3513 28.5499C74.4922 28.1028 74.5767 27.6398 74.6049 27.1608C74.6612 26.6817 74.6894 26.2346 74.6894 25.8195C74.6894 25.3724 74.6612 24.9732 74.6049 24.6219C74.5767 24.2706 74.5203 24.0152 74.4358 23.8555C73.6188 24.3984 72.7595 24.9413 71.8579 25.4842C70.9845 25.9951 70.1816 26.5221 69.4491 27.065C69.0546 27.3204 68.5193 27.7995 67.8431 28.502C67.1951 29.1727 66.6176 29.9072 66.1104 30.7055C65.6033 31.5039 65.3497 32.2384 65.3497 32.9091C65.3497 33.3881 65.5188 33.7713 65.8569 34.0587C66.0823 34.2503 66.195 34.442 66.195 34.6336C66.195 34.7294 66.1245 34.7773 65.9837 34.7773C65.871 34.7773 65.7583 34.7453 65.6456 34.6815C65.2793 34.5537 64.9976 34.2184 64.8004 33.6755C64.6313 33.1326 64.5468 32.5099 64.5468 31.8073C64.5468 30.8173 64.7158 29.9391 65.0539 29.1727C65.3638 28.502 65.8005 27.9272 66.364 27.4482C66.9557 26.9372 67.66 26.4103 68.4771 25.8674C69.4913 25.1968 70.576 24.5421 71.7311 23.9034C72.8863 23.2647 73.971 22.6579 74.9852 22.0831C75.9995 21.4763 76.8306 20.8855 77.4786 20.3107C78.1266 19.7039 78.4506 19.0972 78.4506 18.4904C78.4506 18.3946 78.4506 18.2988 78.4506 18.203C78.4506 18.1072 78.4224 18.0114 78.3661 17.9156C78.3661 17.8836 78.352 17.8677 78.3238 17.8677C78.3238 17.8357 78.3238 17.8038 78.3238 17.7719C78.3238 17.6441 78.3661 17.5802 78.4506 17.5802C78.5915 17.5802 78.7183 17.692 78.8309 17.9156C78.9436 18.203 79 18.5223 79 18.8736C79 19.7359 78.6197 20.5502 77.859 21.3166C77.0983 22.0831 76.1544 22.8336 75.0275 23.5681C75.3374 23.9513 75.6755 24.5421 76.0417 25.3405C76.408 26.1388 76.5911 26.9532 76.5911 27.7835C76.5911 27.9112 76.5911 28.039 76.5911 28.1667C76.5911 28.2625 76.577 28.3743 76.5489 28.502C76.2671 30.3543 75.6191 31.951 74.6049 33.2923C73.6188 34.6016 72.4214 35.7034 71.0127 36.5976C69.604 37.4598 68.1249 38.1145 66.5753 38.5616C65.0539 39.0406 63.603 39.344 62.2224 39.4717Z" fill="black"/>
<path d="M7.90277 53.6509C7.24538 53.6509 6.72886 53.5231 6.35321 53.2677C5.97756 53.0228 5.78973 52.6715 5.78973 52.2138C5.78973 51.7454 5.91182 51.3143 6.15599 50.9204C6.40017 50.5159 6.71477 50.17 7.09982 49.8825C7.49425 49.5845 7.90277 49.3556 8.32538 49.1959C8.75738 49.0256 9.15651 48.9405 9.52277 48.9405C9.7106 48.9405 9.80451 48.9724 9.80451 49.0363C9.80451 49.1321 9.7059 49.18 9.50868 49.18C9.16121 49.18 8.78086 49.2758 8.36764 49.4674C7.96382 49.659 7.60225 49.9251 7.28295 50.2658C7.02938 50.5212 6.83686 50.782 6.70538 51.0482C6.5833 51.3037 6.52225 51.5432 6.52225 51.7667C6.52225 52.0967 6.65843 52.3735 6.93077 52.597C7.20312 52.8099 7.61164 52.9164 8.15634 52.9164C8.47564 52.9164 8.79964 52.8898 9.12834 52.8365C9.45703 52.7727 9.75286 52.7035 10.0158 52.629C10.2882 52.5544 10.4948 52.4959 10.6356 52.4533C10.9831 52.3256 11.3306 52.1712 11.6781 51.9903C12.0349 51.8093 12.3542 51.607 12.636 51.3835C12.9177 51.1493 13.1243 50.9151 13.2558 50.6809C13.3309 50.5532 13.3826 50.4308 13.4108 50.3137C13.4483 50.1966 13.4671 50.0848 13.4671 49.9783C13.4671 49.6803 13.3497 49.4301 13.1149 49.2279C12.8802 49.015 12.5796 48.8234 12.2134 48.653C11.8471 48.4827 11.4574 48.3231 11.0442 48.174C10.6309 48.0143 10.2412 47.8493 9.87494 47.679C9.50868 47.5087 9.20816 47.3171 8.97338 47.1042C8.7386 46.8806 8.62121 46.6145 8.62121 46.3058C8.62121 45.9545 8.7339 45.6405 8.95929 45.3637C9.19408 45.0763 9.4899 44.8262 9.84677 44.6133C10.213 44.3897 10.6028 44.2087 11.016 44.0704C11.4292 43.9213 11.8236 43.8096 12.1993 43.735C12.5749 43.6605 12.8849 43.6233 13.129 43.6233C14.1621 43.6233 14.6786 43.916 14.6786 44.5015C14.6786 44.7357 14.5941 45.0071 14.425 45.3158C14.3499 45.4755 14.2419 45.6299 14.101 45.7789C13.9602 45.9173 13.8522 45.9865 13.777 45.9865C13.7207 45.9865 13.6925 45.9492 13.6925 45.8747C13.6925 45.8428 13.7442 45.7789 13.8475 45.6831C13.9508 45.5766 14.0541 45.4489 14.1574 45.2999C14.2607 45.1508 14.3123 45.0018 14.3123 44.8528C14.3123 44.6292 14.1996 44.4589 13.9742 44.3418C13.7582 44.2247 13.4718 44.1662 13.1149 44.1662C12.9459 44.1662 12.7017 44.1981 12.3824 44.262C12.0631 44.3152 11.7156 44.4057 11.34 44.5334C10.9643 44.6612 10.6028 44.8315 10.2553 45.0444C9.60729 45.4489 9.28329 45.7949 9.28329 46.0823C9.28329 46.2952 9.46642 46.4974 9.83268 46.689C10.105 46.8274 10.4196 46.9711 10.7765 47.1202C11.1334 47.2692 11.4949 47.4289 11.8612 47.5992C12.2275 47.7695 12.5655 47.9611 12.8755 48.174C13.1948 48.3869 13.4483 48.6264 13.6362 48.8926C13.8334 49.148 13.932 49.4408 13.932 49.7708C13.932 50.2179 13.716 50.6756 13.284 51.144C12.9459 51.5059 12.5515 51.8412 12.1007 52.1499C11.6593 52.4586 11.1897 52.7248 10.692 52.9483C10.2036 53.1719 9.71999 53.3422 9.24103 53.4593C8.76208 53.587 8.31599 53.6509 7.90277 53.6509Z" fill="black"/>
<path d="M15.1832 53.2677C15.0141 53.2677 14.8592 53.2251 14.7183 53.1399C14.5868 53.0548 14.4882 52.8951 14.4225 52.6609C14.4131 52.629 14.4037 52.597 14.3943 52.5651C14.3943 52.5332 14.3943 52.4959 14.3943 52.4533C14.3943 52.2404 14.4366 51.9743 14.5211 51.6549C14.6056 51.3356 14.7089 51.0269 14.831 50.7288C14.7747 50.814 14.7089 50.9204 14.6338 51.0482C14.5587 51.1653 14.4507 51.3196 14.3098 51.5112C14.2722 51.5538 14.23 51.5751 14.183 51.5751C14.1173 51.5751 14.0844 51.5325 14.0844 51.4474C14.0844 51.3835 14.1032 51.3303 14.1408 51.2877C14.3849 50.9364 14.6009 50.6224 14.7888 50.3456C14.986 50.0688 15.1315 49.8346 15.2254 49.643C15.2254 49.6217 15.2536 49.5579 15.31 49.4514C15.3663 49.3343 15.4414 49.1747 15.5354 48.9724C15.4602 48.983 15.3945 48.9937 15.3381 49.0043C15.2912 49.0043 15.2489 49.0043 15.2114 49.0043C15.1456 49.0043 15.0893 48.9724 15.0423 48.9085C14.9954 48.8447 14.9907 48.7648 15.0282 48.669C15.0752 48.52 15.1785 48.4348 15.3381 48.4135C15.4978 48.3922 15.6387 48.3763 15.7608 48.3656C15.7701 48.3443 15.7889 48.3337 15.8171 48.3337C15.9298 48.0995 16.0378 47.8706 16.1411 47.6471C16.2444 47.4235 16.3289 47.2373 16.3947 47.0882C16.4698 46.9392 16.5074 46.8594 16.5074 46.8487C16.6952 46.5081 16.8173 46.2845 16.8736 46.1781C16.93 46.061 17.0051 45.9918 17.099 45.9705C17.2023 45.9599 17.3103 45.9652 17.423 45.9865C17.5451 46.0078 17.6249 46.0557 17.6625 46.1302C17.6907 46.1728 17.7048 46.226 17.7048 46.2899C17.7048 46.3857 17.686 46.4815 17.6484 46.5773C17.6108 46.6624 17.5733 46.7316 17.5357 46.7848C17.4981 46.8594 17.4465 46.9126 17.3808 46.9445C17.3244 46.9658 17.2728 47.0297 17.2258 47.1361C17.1319 47.3384 17.0286 47.5566 16.9159 47.7908C16.8032 48.025 16.6858 48.2485 16.5637 48.4614L16.7328 48.4455C16.9581 48.4242 17.1694 48.3976 17.3667 48.3656C17.5733 48.3337 17.8081 48.323 18.071 48.3337C18.118 48.3337 18.1649 48.3443 18.2119 48.3656C18.2682 48.3763 18.2964 48.3976 18.2964 48.4295C18.2964 48.4721 18.1743 48.5306 17.9301 48.6051C17.8362 48.6477 17.6296 48.6956 17.3103 48.7489C17.0004 48.7914 16.6811 48.834 16.3524 48.8766C16.2585 49.0788 16.174 49.2492 16.0988 49.3876C16.0237 49.5153 15.9721 49.6111 15.9439 49.675C15.7373 50.1646 15.5494 50.6117 15.3804 51.0162C15.2208 51.4101 15.1315 51.7348 15.1128 51.9903C15.1034 52.0328 15.0987 52.0754 15.0987 52.118C15.0987 52.1499 15.0987 52.1872 15.0987 52.2298C15.0987 52.6556 15.2208 52.8685 15.4649 52.8685C15.6152 52.8685 15.8077 52.778 16.0425 52.597C16.2773 52.4054 16.5168 52.1765 16.7609 51.9104C17.0051 51.6337 17.2258 51.3728 17.423 51.128C17.6296 50.8725 17.7705 50.6809 17.8456 50.5532C17.8738 50.5212 17.902 50.5053 17.9301 50.5053C17.9677 50.5053 17.9959 50.5212 18.0147 50.5532C18.0428 50.5851 18.0475 50.6277 18.0288 50.6809C17.9442 50.8619 17.7987 51.0908 17.5921 51.3675C17.3948 51.6336 17.1694 51.9051 16.9159 52.1819C16.6717 52.448 16.4322 52.6769 16.1974 52.8685C16.0754 52.9749 15.9204 53.0654 15.7326 53.1399C15.5541 53.2251 15.371 53.2677 15.1832 53.2677Z" fill="black"/>
<path d="M17.0791 58.9681C16.9664 58.9361 16.8678 58.9042 16.7833 58.8723C16.6048 58.7658 16.4781 58.6434 16.4029 58.505C16.3278 58.3773 16.2902 58.2389 16.2902 58.0899C16.2902 57.845 16.3654 57.5789 16.5156 57.2915C16.6565 57.0147 16.8443 56.7273 17.0791 56.4292C17.3139 56.1099 17.6097 55.7852 17.9666 55.4552C18.3328 55.1252 18.7132 54.8059 19.1076 54.4972C19.502 54.1991 19.8495 53.9383 20.15 53.7148C20.3097 53.3422 20.474 52.943 20.6431 52.5172C20.8215 52.0914 20.9906 51.6816 21.1502 51.2877C21.3099 50.8832 21.446 50.5159 21.5587 50.1859C21.6808 49.8559 21.77 49.6004 21.8264 49.4195C21.6761 49.6217 21.5024 49.8772 21.3052 50.1859C21.108 50.484 20.892 50.8033 20.6572 51.144C20.4224 51.474 20.1782 51.788 19.9247 52.0861C19.6805 52.3841 19.4269 52.629 19.164 52.8206C18.901 53.0015 18.6427 53.092 18.3892 53.092C18.0135 53.092 17.7506 52.9856 17.6003 52.7727C17.4594 52.5491 17.389 52.2883 17.389 51.9903C17.389 51.7774 17.4125 51.5645 17.4594 51.3516C17.5158 51.1387 17.5862 50.9417 17.6707 50.7608C17.7271 50.633 17.8163 50.4627 17.9384 50.2498C18.0605 50.0369 18.2014 49.8187 18.361 49.5951C18.5207 49.3716 18.6803 49.1853 18.84 49.0363C19.009 48.8872 19.1687 48.8127 19.3189 48.8127C19.4974 48.8127 19.6335 48.8872 19.7274 49.0363C19.8214 49.1746 19.8307 49.2705 19.7556 49.3237C19.6054 49.4408 19.4175 49.6217 19.1921 49.8666C18.9761 50.1008 18.7601 50.3722 18.5441 50.6809C18.4878 50.7661 18.4174 50.8991 18.3328 51.0801C18.2577 51.2611 18.1873 51.458 18.1215 51.6709C18.0558 51.8732 18.0229 52.0595 18.0229 52.2298C18.0229 52.3043 18.0323 52.3788 18.0511 52.4533C18.0699 52.5172 18.1027 52.5651 18.1497 52.597C18.2248 52.6609 18.3094 52.6928 18.4033 52.6928C18.5347 52.6928 18.6803 52.6449 18.84 52.5491C19.009 52.4533 19.1687 52.3309 19.3189 52.1819C19.8448 51.607 20.3144 51.0056 20.7276 50.3775C21.1408 49.7495 21.5775 49.1267 22.0377 48.5093C22.0659 48.4029 22.1457 48.3497 22.2772 48.3497C22.4274 48.3497 22.5824 48.4029 22.742 48.5093C22.9111 48.6051 22.9815 48.685 22.9533 48.7489C22.8688 48.9618 22.7561 49.2438 22.6153 49.5951C22.4838 49.9464 22.3382 50.3243 22.1786 50.7288C22.0189 51.1333 21.8593 51.5378 21.6996 51.9424C21.54 52.3362 21.3944 52.6928 21.2629 53.0122C21.3756 52.9483 21.5775 52.7886 21.8687 52.5332C22.1598 52.2777 22.4791 51.969 22.8266 51.607C23.174 51.2345 23.4887 50.8512 23.7704 50.4574C23.8267 50.3935 23.869 50.3616 23.8972 50.3616C23.9535 50.3616 23.9817 50.4041 23.9817 50.4893C23.9817 50.5638 23.9535 50.649 23.8972 50.7448C23.7563 50.9577 23.5591 51.2078 23.3055 51.4953C23.0613 51.7827 22.7937 52.0754 22.5026 52.3735C22.2208 52.6609 21.9438 52.9217 21.6714 53.1559C21.3991 53.4007 21.1643 53.587 20.9671 53.7148C20.676 54.4173 20.3942 55.0773 20.1219 55.6947C19.8495 56.3228 19.6007 56.8284 19.3753 57.2116C19.225 57.4778 19.0419 57.7492 18.8259 58.026C18.6099 58.3027 18.3751 58.5316 18.1215 58.7126C17.868 58.9042 17.6003 59 17.3186 59C17.281 59 17.2434 58.9947 17.2059 58.984C17.1683 58.984 17.126 58.9787 17.0791 58.9681ZM17.1214 58.6168C17.1965 58.6168 17.2857 58.5902 17.389 58.5369C17.5017 58.4837 17.6191 58.3986 17.7412 58.2815C18.098 57.9515 18.3986 57.5629 18.6427 57.1158C18.8869 56.6794 19.1029 56.2163 19.2907 55.7267C19.488 55.237 19.6852 54.7686 19.8824 54.3215C19.5161 54.6302 19.1029 54.9921 18.6427 55.4073C18.1826 55.8331 17.7647 56.2536 17.389 56.6687C17.1636 56.9242 16.9993 57.1744 16.896 57.4192C16.7927 57.6747 16.741 57.8982 16.741 58.0899C16.741 58.4411 16.8678 58.6168 17.1214 58.6168Z" fill="black"/>
<path d="M24.4189 53.2677C24.0245 53.2677 23.7475 53.1559 23.5878 52.9323C23.4375 52.7088 23.3624 52.432 23.3624 52.102C23.3624 51.7933 23.4235 51.4048 23.5455 50.9364C23.677 50.468 23.8461 49.9624 24.0527 49.4195C24.2593 48.8766 24.48 48.339 24.7148 47.8068C24.9589 47.2639 25.1984 46.7689 25.4332 46.3218C25.6774 45.8641 25.8887 45.4968 26.0671 45.22C26.2455 44.9539 26.4381 44.6878 26.6447 44.4216C26.8513 44.1555 27.0814 43.932 27.3349 43.751C27.5885 43.57 27.8749 43.4796 28.1942 43.4796C28.4102 43.4796 28.5934 43.5488 28.7436 43.6871C28.9033 43.8149 28.9831 44.0118 28.9831 44.2779C28.9831 44.3844 28.9643 44.5068 28.9268 44.6452C28.8986 44.7836 28.8469 44.9273 28.7718 45.0763C28.1989 46.2047 27.5134 47.2479 26.7151 48.206C25.9262 49.164 25.0904 50.0529 24.2076 50.8725C24.1701 51.0322 24.1325 51.1759 24.0949 51.3037C24.0668 51.4314 24.0433 51.5325 24.0245 51.607C24.0151 51.6603 24.0104 51.7188 24.0104 51.7827C24.0104 51.8359 24.0104 51.8891 24.0104 51.9424C24.0104 52.1978 24.048 52.4214 24.1231 52.613C24.1982 52.8046 24.325 52.9004 24.5035 52.9004C24.6725 52.9004 24.8791 52.8099 25.1233 52.629C25.3769 52.4374 25.6304 52.2085 25.884 51.9424C26.1375 51.6656 26.3676 51.3995 26.5742 51.144C26.7808 50.8885 26.9264 50.6916 27.0109 50.5532C27.0391 50.5212 27.0673 50.5053 27.0955 50.5053C27.133 50.5053 27.1612 50.5266 27.18 50.5691C27.2082 50.6117 27.2082 50.665 27.18 50.7288C27.0861 50.9098 26.9358 51.1333 26.7292 51.3995C26.5226 51.6656 26.2925 51.937 26.0389 52.2138C25.7854 52.4799 25.5412 52.7141 25.3064 52.9164C25.0153 53.1506 24.7195 53.2677 24.4189 53.2677ZM24.4049 50.2338C24.7617 49.9571 25.1327 49.6004 25.5177 49.164C25.9028 48.7169 26.2784 48.2326 26.6447 47.711C27.0203 47.1894 27.3584 46.6731 27.6589 46.1621C27.9688 45.6511 28.2177 45.1881 28.4055 44.7729C28.4619 44.6558 28.4995 44.5547 28.5182 44.4696C28.5464 44.3737 28.5605 44.2886 28.5605 44.2141C28.5605 44.0118 28.4854 43.9107 28.3351 43.9107C28.2036 43.9107 28.0393 43.9905 27.8421 44.1502C27.3349 44.5973 26.8654 45.1721 26.4334 45.8747C26.0014 46.5666 25.6163 47.2958 25.2782 48.0622C24.9402 48.8287 24.649 49.5525 24.4049 50.2338Z" fill="black"/>
<path d="M28.1009 53.3475C27.6783 53.3475 27.312 53.2357 27.0021 53.0122C26.6922 52.7886 26.5373 52.448 26.5373 51.9903C26.5373 51.7454 26.603 51.4474 26.7345 51.0961C26.8284 50.8512 27.0021 50.5691 27.2557 50.2498C27.5093 49.9304 27.8051 49.6217 28.1432 49.3237C28.4813 49.015 28.824 48.7648 29.1715 48.5732C29.519 48.371 29.8336 48.2698 30.1153 48.2698C30.2186 48.2698 30.3126 48.2858 30.3971 48.3177C30.5567 48.3816 30.6647 48.4827 30.7211 48.6211C30.7868 48.7595 30.8197 48.9032 30.8197 49.0522C30.8197 49.1906 30.8009 49.3237 30.7633 49.4514C30.7258 49.5792 30.6788 49.6909 30.6225 49.7867C30.4534 50.0742 30.2093 50.3296 29.89 50.5532C29.58 50.7767 29.2607 50.9524 28.932 51.0801C28.6127 51.2078 28.3498 51.2824 28.1432 51.3037H28.115C27.9929 51.3037 27.9319 51.2611 27.9319 51.1759C27.9319 51.1227 27.9694 51.0961 28.0446 51.0961C28.27 51.0748 28.5517 50.9577 28.8898 50.7448C29.2373 50.5212 29.5425 50.2924 29.8054 50.0582C29.9181 49.9517 30.0496 49.8027 30.1999 49.6111C30.3595 49.4195 30.4393 49.2332 30.4393 49.0522C30.4393 48.8606 30.3595 48.7648 30.1999 48.7648C30.1153 48.7648 30.0261 48.7861 29.9322 48.8287C29.8477 48.8713 29.7773 48.9032 29.7209 48.9245C29.4486 49.0735 29.148 49.3077 28.8193 49.6271C28.4907 49.9358 28.1901 50.2871 27.9178 50.6809C27.6548 51.0641 27.4717 51.4527 27.3684 51.8465C27.3402 51.9317 27.3214 52.0169 27.312 52.102C27.3027 52.1765 27.298 52.2511 27.298 52.3256C27.298 52.5811 27.3684 52.762 27.5093 52.8685C27.6595 52.9749 27.838 53.0281 28.0446 53.0281C28.3545 53.0281 28.6738 52.9536 29.0025 52.8046C29.3312 52.6449 29.6505 52.4427 29.9604 52.1978C30.2703 51.953 30.552 51.6922 30.8056 51.4154C31.0686 51.128 31.2893 50.8512 31.4677 50.5851C31.4959 50.5425 31.5287 50.5212 31.5663 50.5212C31.6039 50.5106 31.6273 50.5159 31.6367 50.5372C31.6743 50.5479 31.6931 50.5798 31.6931 50.633C31.6931 50.6756 31.6837 50.7182 31.6649 50.7608C31.402 51.1759 31.0826 51.5804 30.707 51.9743C30.3407 52.3682 29.9322 52.6982 29.4814 52.9643C29.04 53.2198 28.5799 53.3475 28.1009 53.3475Z" fill="black"/>
<path d="M37.4136 53.6189C37.3479 53.6296 37.2821 53.6349 37.2164 53.6349C37.1506 53.6349 37.0849 53.6349 37.0192 53.6349C36.4275 53.6349 35.9345 53.5231 35.54 53.2996C35.155 53.0867 34.8639 52.8099 34.6666 52.4693C34.4788 52.118 34.3849 51.7507 34.3849 51.3675C34.3849 50.8885 34.5258 50.4201 34.8075 49.9624C35.0986 49.5046 35.5165 49.1587 36.0612 48.9245C36.3805 48.7861 36.6858 48.7009 36.9769 48.669C37.2774 48.6371 37.5545 48.6211 37.808 48.6211C38.0616 48.6105 38.2729 48.5945 38.4419 48.5732C38.2165 48.3497 37.9865 48.0782 37.7517 47.7589C37.5169 47.4289 37.3197 47.0723 37.16 46.689C37.0004 46.3058 36.9205 45.9279 36.9205 45.5553C36.9205 45.385 36.9393 45.22 36.9769 45.0604C37.0145 44.9007 37.0802 44.7516 37.1741 44.6133C37.2774 44.4536 37.4371 44.3205 37.6531 44.2141C37.8785 44.097 38.1226 44.0065 38.3856 43.9426C38.6579 43.8788 38.9068 43.8468 39.1322 43.8468C39.4233 43.8468 39.7098 43.9267 39.9915 44.0863C40.2826 44.246 40.5174 44.4483 40.6958 44.6931C40.771 44.5867 40.8555 44.4908 40.9494 44.4057C41.0433 44.3205 41.1419 44.2726 41.2452 44.262C41.264 44.2513 41.2922 44.246 41.3298 44.246C41.4049 44.246 41.4659 44.2673 41.5129 44.3099C41.5692 44.3418 41.5974 44.3897 41.5974 44.4536C41.5974 44.5068 41.5692 44.56 41.5129 44.6133C41.4753 44.6771 41.4049 44.7463 41.3016 44.8208C41.2077 44.8954 41.1091 44.9912 41.0058 45.1083C40.8743 45.2466 40.7569 45.4063 40.6536 45.5873C40.5503 45.7576 40.4986 45.9332 40.4986 46.1142C40.4986 46.2207 40.5268 46.3218 40.5832 46.4176C40.5925 46.4282 40.5972 46.4442 40.5972 46.4655C40.5972 46.5187 40.5691 46.5453 40.5127 46.5453C40.4658 46.5453 40.4188 46.5187 40.3718 46.4655C40.3249 46.391 40.3014 46.2313 40.3014 45.9865C40.3014 45.8374 40.3155 45.6831 40.3437 45.5234C40.3718 45.3531 40.4188 45.1987 40.4845 45.0604C40.4939 45.0497 40.4986 45.0391 40.4986 45.0284C40.508 45.0071 40.5174 44.9912 40.5268 44.9805C40.3765 44.7889 40.1652 44.6133 39.8929 44.4536C39.6299 44.2939 39.3576 44.2141 39.0758 44.2141C38.9725 44.2141 38.8692 44.23 38.7659 44.262C38.4466 44.3365 38.2259 44.5068 38.1039 44.7729C37.9818 45.0391 37.9207 45.3424 37.9207 45.6831C37.9207 45.9918 37.9583 46.3165 38.0334 46.6571C38.1179 46.9977 38.2212 47.3118 38.3433 47.5992C38.4654 47.8866 38.5875 48.1208 38.7096 48.3018C38.8223 48.4721 38.8786 48.5945 38.8786 48.669C38.8786 48.7542 38.7941 48.8127 38.6251 48.8447C38.1931 48.8979 37.7705 49.0097 37.3572 49.18C36.9534 49.3503 36.6294 49.5046 36.3852 49.643C35.9532 49.8879 35.6292 50.1859 35.4132 50.5372C35.1972 50.8885 35.0892 51.2345 35.0892 51.5751C35.0892 52.0328 35.2677 52.4373 35.6245 52.7886C35.9814 53.1293 36.4885 53.2996 37.1459 53.2996C37.2117 53.2996 37.2774 53.2996 37.3432 53.2996C37.4089 53.2996 37.4746 53.2943 37.5404 53.2836C38.1132 53.2198 38.6579 53.0654 39.1745 52.8206C39.7004 52.5757 40.1652 52.2244 40.5691 51.7667C40.9729 51.2983 41.2687 50.7022 41.4565 49.9783C41.5035 49.8293 41.5317 49.675 41.5411 49.5153C41.5598 49.3556 41.5692 49.2066 41.5692 49.0682C41.5692 48.9192 41.5598 48.7861 41.5411 48.669C41.5317 48.5519 41.5129 48.4668 41.4847 48.4135C41.2124 48.5945 40.9259 48.7755 40.6254 48.9564C40.3343 49.1267 40.0666 49.3024 39.8225 49.4834C39.691 49.5685 39.5125 49.7282 39.2872 49.9624C39.0712 50.1859 38.8786 50.4308 38.7096 50.6969C38.5405 50.963 38.456 51.2079 38.456 51.4314C38.456 51.5911 38.5124 51.7188 38.6251 51.8146C38.7002 51.8785 38.7378 51.9424 38.7378 52.0062C38.7378 52.0382 38.7143 52.0541 38.6673 52.0541C38.6298 52.0541 38.5922 52.0435 38.5546 52.0222C38.4325 51.9796 38.3386 51.8678 38.2729 51.6869C38.2165 51.5059 38.1884 51.2983 38.1884 51.0641C38.1884 50.7341 38.2447 50.4414 38.3574 50.1859C38.4607 49.9624 38.6063 49.7708 38.7941 49.6111C38.9913 49.4408 39.2261 49.2651 39.4985 49.0842C39.8365 48.8606 40.1981 48.6424 40.5832 48.4295C40.9682 48.2166 41.3298 48.0143 41.6678 47.8227C42.0059 47.6205 42.283 47.4235 42.499 47.2319C42.715 47.0297 42.823 46.8274 42.823 46.6252C42.823 46.5932 42.823 46.5613 42.823 46.5294C42.823 46.4974 42.8136 46.4655 42.7948 46.4336C42.7948 46.4229 42.7901 46.4176 42.7807 46.4176C42.7807 46.4069 42.7807 46.3963 42.7807 46.3857C42.7807 46.3431 42.7948 46.3218 42.823 46.3218C42.8699 46.3218 42.9122 46.359 42.9498 46.4336C42.9873 46.5294 43.0061 46.6358 43.0061 46.7529C43.0061 47.0403 42.8793 47.3118 42.6258 47.5673C42.3722 47.8227 42.0576 48.0729 41.6819 48.3177C41.7852 48.4455 41.8979 48.6424 42.02 48.9085C42.1421 49.1746 42.2031 49.4461 42.2031 49.7229C42.2031 49.7654 42.2031 49.808 42.2031 49.8506C42.2031 49.8825 42.1985 49.9198 42.1891 49.9624C42.0951 50.5798 41.8792 51.112 41.5411 51.5591C41.2124 51.9956 40.8132 52.3628 40.3437 52.6609C39.8741 52.9483 39.3811 53.1665 38.8645 53.3156C38.3574 53.4752 37.8738 53.5764 37.4136 53.6189Z" fill="black"/>
<path d="M49.0355 53.6509C48.3781 53.6509 47.8616 53.5231 47.486 53.2677C47.1103 53.0228 46.9225 52.6715 46.9225 52.2138C46.9225 51.7454 47.0446 51.3143 47.2888 50.9204C47.5329 50.5159 47.8475 50.17 48.2326 49.8825C48.627 49.5845 49.0355 49.3556 49.4581 49.1959C49.8901 49.0256 50.2893 48.9405 50.6555 48.9405C50.8434 48.9405 50.9373 48.9724 50.9373 49.0363C50.9373 49.1321 50.8387 49.18 50.6414 49.18C50.294 49.18 49.9136 49.2758 49.5004 49.4674C49.0966 49.659 48.735 49.9251 48.4157 50.2658C48.1621 50.5212 47.9696 50.782 47.8381 51.0482C47.7161 51.3037 47.655 51.5432 47.655 51.7667C47.655 52.0967 47.7912 52.3735 48.0635 52.597C48.3359 52.8099 48.7444 52.9164 49.2891 52.9164C49.6084 52.9164 49.9324 52.8898 50.2611 52.8365C50.5898 52.7727 50.8856 52.7035 51.1486 52.629C51.4209 52.5544 51.6275 52.4959 51.7684 52.4533C52.1159 52.3256 52.4634 52.1712 52.8108 51.9903C53.1677 51.8093 53.487 51.607 53.7687 51.3835C54.0505 51.1493 54.2571 50.9151 54.3886 50.6809C54.4637 50.5532 54.5154 50.4308 54.5435 50.3137C54.5811 50.1966 54.5999 50.0848 54.5999 49.9783C54.5999 49.6803 54.4825 49.4301 54.2477 49.2279C54.0129 49.015 53.7124 48.8234 53.3461 48.653C52.9799 48.4827 52.5901 48.3231 52.1769 48.174C51.7637 48.0143 51.374 47.8493 51.0077 47.679C50.6414 47.5087 50.3409 47.3171 50.1061 47.1042C49.8714 46.8806 49.754 46.6145 49.754 46.3058C49.754 45.9545 49.8667 45.6405 50.0921 45.3637C50.3268 45.0763 50.6227 44.8262 50.9795 44.6133C51.3458 44.3897 51.7355 44.2087 52.1487 44.0704C52.562 43.9213 52.9564 43.8096 53.3321 43.735C53.7077 43.6605 54.0176 43.6233 54.2618 43.6233C55.2948 43.6233 55.8114 43.916 55.8114 44.5015C55.8114 44.7357 55.7268 45.0071 55.5578 45.3158C55.4827 45.4755 55.3747 45.6299 55.2338 45.7789C55.0929 45.9173 54.9849 45.9865 54.9098 45.9865C54.8534 45.9865 54.8253 45.9492 54.8253 45.8747C54.8253 45.8428 54.8769 45.7789 54.9802 45.6831C55.0835 45.5766 55.1868 45.4489 55.2901 45.2999C55.3934 45.1508 55.4451 45.0018 55.4451 44.8528C55.4451 44.6292 55.3324 44.4589 55.107 44.3418C54.891 44.2247 54.6046 44.1662 54.2477 44.1662C54.0787 44.1662 53.8345 44.1981 53.5152 44.262C53.1959 44.3152 52.8484 44.4057 52.4727 44.5334C52.0971 44.6612 51.7355 44.8315 51.3881 45.0444C50.7401 45.4489 50.4161 45.7949 50.4161 46.0823C50.4161 46.2952 50.5992 46.4974 50.9654 46.689C51.2378 46.8274 51.5524 46.9711 51.9093 47.1202C52.2661 47.2692 52.6277 47.4289 52.994 47.5992C53.3602 47.7695 53.6983 47.9611 54.0082 48.174C54.3275 48.3869 54.5811 48.6264 54.7689 48.8926C54.9661 49.148 55.0647 49.4408 55.0647 49.7708C55.0647 50.2179 54.8487 50.6756 54.4167 51.144C54.0787 51.5059 53.6842 51.8412 53.2334 52.1499C52.7921 52.4586 52.3225 52.7248 51.8247 52.9483C51.3364 53.1719 50.8528 53.3422 50.3738 53.4593C49.8948 53.587 49.4488 53.6509 49.0355 53.6509Z" fill="black"/>
<path d="M56.3159 53.2677C56.1469 53.2677 55.992 53.2251 55.8511 53.1399C55.7196 53.0548 55.621 52.8951 55.5553 52.6609C55.5459 52.629 55.5365 52.597 55.5271 52.5651C55.5271 52.5332 55.5271 52.4959 55.5271 52.4533C55.5271 52.2404 55.5693 51.9743 55.6539 51.6549C55.7384 51.3356 55.8417 51.0269 55.9638 50.7288C55.9074 50.814 55.8417 50.9204 55.7666 51.0482C55.6914 51.1653 55.5834 51.3196 55.4426 51.5112C55.405 51.5538 55.3627 51.5751 55.3158 51.5751C55.25 51.5751 55.2172 51.5325 55.2172 51.4474C55.2172 51.3835 55.236 51.3303 55.2735 51.2877C55.5177 50.9364 55.7337 50.6224 55.9215 50.3456C56.1187 50.0688 56.2643 49.8346 56.3582 49.643C56.3582 49.6217 56.3864 49.5579 56.4427 49.4514C56.4991 49.3343 56.5742 49.1747 56.6681 48.9724C56.593 48.983 56.5273 48.9937 56.4709 49.0043C56.424 49.0043 56.3817 49.0043 56.3441 49.0043C56.2784 49.0043 56.222 48.9724 56.1751 48.9085C56.1281 48.8447 56.1234 48.7648 56.161 48.669C56.2079 48.52 56.3113 48.4348 56.4709 48.4135C56.6306 48.3922 56.7714 48.3763 56.8935 48.3656C56.9029 48.3443 56.9217 48.3337 56.9499 48.3337C57.0626 48.0995 57.1706 47.8706 57.2739 47.6471C57.3772 47.4235 57.4617 47.2373 57.5274 47.0882C57.6026 46.9392 57.6401 46.8594 57.6401 46.8487C57.8279 46.5081 57.95 46.2845 58.0064 46.1781C58.0627 46.061 58.1379 45.9918 58.2318 45.9705C58.3351 45.9599 58.4431 45.9652 58.5558 45.9865C58.6779 46.0078 58.7577 46.0557 58.7953 46.1302C58.8234 46.1728 58.8375 46.226 58.8375 46.2899C58.8375 46.3857 58.8187 46.4815 58.7812 46.5773C58.7436 46.6624 58.706 46.7316 58.6685 46.7848C58.6309 46.8594 58.5793 46.9126 58.5135 46.9445C58.4572 46.9658 58.4055 47.0297 58.3586 47.1361C58.2646 47.3384 58.1613 47.5566 58.0486 47.7908C57.9359 48.025 57.8186 48.2485 57.6965 48.4614L57.8655 48.4455C58.0909 48.4242 58.3022 48.3976 58.4994 48.3656C58.706 48.3337 58.9408 48.323 59.2038 48.3337C59.2507 48.3337 59.2977 48.3443 59.3446 48.3656C59.401 48.3763 59.4292 48.3976 59.4292 48.4295C59.4292 48.4721 59.3071 48.5306 59.0629 48.6051C58.969 48.6477 58.7624 48.6956 58.4431 48.7489C58.1332 48.7914 57.8139 48.834 57.4852 48.8766C57.3913 49.0788 57.3067 49.2492 57.2316 49.3876C57.1565 49.5153 57.1048 49.6111 57.0766 49.675C56.87 50.1646 56.6822 50.6117 56.5132 51.0162C56.3535 51.4101 56.2643 51.7348 56.2455 51.9903C56.2361 52.0328 56.2314 52.0754 56.2314 52.118C56.2314 52.1499 56.2314 52.1872 56.2314 52.2298C56.2314 52.6556 56.3535 52.8685 56.5977 52.8685C56.748 52.8685 56.9405 52.778 57.1753 52.597C57.41 52.4054 57.6495 52.1765 57.8937 51.9104C58.1379 51.6337 58.3586 51.3728 58.5558 51.128C58.7624 50.8725 58.9033 50.6809 58.9784 50.5532C59.0066 50.5212 59.0347 50.5053 59.0629 50.5053C59.1005 50.5053 59.1286 50.5212 59.1474 50.5532C59.1756 50.5851 59.1803 50.6277 59.1615 50.6809C59.077 50.8619 58.9314 51.0908 58.7248 51.3675C58.5276 51.6336 58.3022 51.9051 58.0486 52.1819C57.8045 52.448 57.565 52.6769 57.3302 52.8685C57.2081 52.9749 57.0532 53.0654 56.8653 53.1399C56.6869 53.2251 56.5038 53.2677 56.3159 53.2677Z" fill="black"/>
<path d="M59.9023 53.2836C59.6393 53.2836 59.4092 53.2144 59.212 53.076C58.8833 52.8525 58.719 52.448 58.719 51.8625C58.719 51.6177 58.7565 51.3356 58.8317 51.0162C58.8974 50.7501 59.0148 50.4627 59.1839 50.154C59.3529 49.8346 59.5501 49.5313 59.7755 49.2438C60.0103 48.9564 60.2639 48.7222 60.5362 48.5413C60.8085 48.3603 61.0809 48.2698 61.3532 48.2698C61.4659 48.2698 61.5645 48.2858 61.6491 48.3177C61.7618 48.3603 61.8557 48.4401 61.9308 48.5572C62.0153 48.6637 62.0576 48.8021 62.0576 48.9724C62.0576 49.1534 62.0153 49.2545 61.9308 49.2758C61.8557 49.2971 61.8181 49.2758 61.8181 49.2119C61.8181 49.1906 61.8181 49.1693 61.8181 49.148C61.8275 49.1267 61.8322 49.1108 61.8322 49.1001C61.8322 49.015 61.8087 48.9405 61.7618 48.8766C61.7242 48.8021 61.6491 48.7648 61.5364 48.7648C61.3861 48.7648 61.1983 48.8553 60.9729 49.0363C60.7569 49.2172 60.5315 49.4621 60.2967 49.7708C60.0713 50.0688 59.8694 50.3988 59.691 50.7608C59.5219 51.1227 59.4092 51.4846 59.3529 51.8465C59.3435 51.8998 59.3341 51.953 59.3247 52.0062C59.3247 52.0488 59.3247 52.0967 59.3247 52.1499C59.3247 52.3948 59.3717 52.6023 59.4656 52.7727C59.5689 52.9323 59.7285 53.0122 59.9445 53.0122C60.2075 53.0122 60.4611 52.9004 60.7052 52.6769C60.9494 52.4427 61.1654 52.1659 61.3532 51.8465C61.5505 51.5272 61.696 51.2451 61.7899 51.0003C61.8651 50.8087 61.9167 50.6437 61.9449 50.5053C61.9731 50.3669 61.9872 50.2498 61.9872 50.154C61.9872 50.0688 61.9778 49.9943 61.959 49.9304C61.9496 49.8666 61.9355 49.8134 61.9167 49.7708C61.8979 49.7069 61.8885 49.659 61.8885 49.6271C61.8885 49.5419 61.9167 49.4727 61.9731 49.4195C62.0388 49.3663 62.1045 49.3396 62.1703 49.3396C62.2266 49.3396 62.2877 49.3609 62.3534 49.4035C62.4285 49.4248 62.5318 49.4408 62.6633 49.4514C62.7948 49.4621 62.9357 49.4674 63.0859 49.4674C63.2456 49.4674 63.4052 49.4621 63.5649 49.4514C63.7339 49.4408 63.8795 49.4195 64.0016 49.3876C64.0204 49.3769 64.0485 49.3716 64.0861 49.3716C64.1518 49.3716 64.1847 49.3929 64.1847 49.4355C64.1847 49.478 64.1518 49.5153 64.0861 49.5472C63.7574 49.7175 63.4616 49.808 63.1986 49.8187C62.9451 49.8293 62.7244 49.8346 62.5365 49.8346C62.5553 50.1008 62.5037 50.3882 62.3816 50.6969C62.2595 50.9949 62.1327 51.2611 62.0012 51.4953C61.8416 51.7614 61.6585 52.0328 61.4518 52.3096C61.2452 52.5864 61.0152 52.8206 60.7616 53.0122C60.508 53.1931 60.2216 53.2836 59.9023 53.2836Z" fill="black"/>
<path d="M65.5466 53.2996C65.387 53.2996 65.2461 53.257 65.124 53.1719C65.0019 53.0973 64.9174 52.9483 64.8705 52.7248C64.8423 52.6077 64.8282 52.4906 64.8282 52.3735C64.8282 52.0541 64.8986 51.7454 65.0395 51.4474C65.1898 51.1387 65.3635 50.8566 65.5607 50.6011C65.7579 50.335 65.927 50.1114 66.0679 49.9304C66.143 49.8453 66.2275 49.7335 66.3214 49.5951C66.4247 49.4567 66.4764 49.3184 66.4764 49.18C66.4764 49.0948 66.4388 49.015 66.3637 48.9405C66.2886 48.8553 66.1524 48.7968 65.9552 48.7648C65.8425 48.7435 65.7345 48.7276 65.6312 48.7169C65.5372 48.6956 65.4386 48.685 65.3353 48.685C65.0724 49.0895 64.8141 49.4993 64.5606 49.9145C64.3164 50.319 64.0534 50.7182 63.7717 51.112C63.7059 51.1866 63.6496 51.2238 63.6026 51.2238C63.5463 51.2238 63.5181 51.1919 63.5181 51.128C63.5181 51.0641 63.5463 51.0003 63.6026 50.9364C64.1098 50.2338 64.5465 49.4834 64.9127 48.685C64.8658 48.685 64.7953 48.685 64.7014 48.685C64.6075 48.6743 64.5324 48.6637 64.476 48.653C64.4103 48.6318 64.3586 48.5998 64.3211 48.5572C64.2835 48.5147 64.2647 48.4721 64.2647 48.4295C64.2647 48.3656 64.2882 48.3284 64.3352 48.3177C64.4572 48.2751 64.5887 48.2113 64.7296 48.1261C64.8705 48.041 65.0019 47.9292 65.124 47.7908C65.2555 47.6418 65.3776 47.4874 65.4903 47.3277C65.603 47.1574 65.6922 47.0297 65.7579 46.9445C65.8237 46.8913 65.8941 46.8647 65.9692 46.8647C66.0162 46.8647 66.0585 46.8806 66.096 46.9126C66.143 46.9445 66.1665 46.9924 66.1665 47.0563C66.1665 47.1308 66.1383 47.2266 66.0819 47.3437C65.9974 47.4927 65.9035 47.6577 65.8002 47.8387C65.7063 48.0197 65.6171 48.1847 65.5325 48.3337C65.7016 48.3443 65.8706 48.355 66.0397 48.3656C66.2087 48.3763 66.3825 48.3816 66.5609 48.3816C66.6548 48.3816 66.744 48.3816 66.8286 48.3816C66.9225 48.371 67.0164 48.3656 67.1103 48.3656C67.392 48.3656 67.5329 48.4455 67.5329 48.6051C67.5329 48.7116 67.4812 48.8447 67.3779 49.0043C67.284 49.1534 67.1666 49.3184 67.0258 49.4993C66.7065 49.9145 66.4341 50.3509 66.2087 50.8087C65.9833 51.2664 65.8331 51.6177 65.7579 51.8625C65.6828 52.118 65.6452 52.3096 65.6452 52.4373C65.6452 52.6928 65.7345 52.8206 65.9129 52.8206C66.0725 52.8206 66.2651 52.7301 66.4905 52.5491C66.7252 52.3682 66.9647 52.1499 67.2089 51.8945C67.4531 51.6283 67.6738 51.3728 67.871 51.128C68.0682 50.8725 68.2091 50.6809 68.2936 50.5532C68.3124 50.5212 68.3405 50.5053 68.3781 50.5053C68.4157 50.5053 68.4485 50.5266 68.4767 50.5691C68.5049 50.6011 68.5049 50.6437 68.4767 50.6969C68.3734 50.8779 68.2232 51.1067 68.0259 51.3835C67.8287 51.6496 67.608 51.9157 67.3639 52.1819C67.1197 52.448 66.8802 52.6769 66.6454 52.8685C66.5233 52.9749 66.3543 53.0707 66.1383 53.1559C65.9317 53.2517 65.7345 53.2996 65.5466 53.2996Z" fill="black"/>
<path d="M67.5252 58.9681C67.4125 58.9361 67.3139 58.9042 67.2294 58.8723C67.0509 58.7658 66.9241 58.6434 66.849 58.505C66.7739 58.3773 66.7363 58.2389 66.7363 58.0899C66.7363 57.845 66.8115 57.5789 66.9617 57.2915C67.1026 57.0147 67.2904 56.7273 67.5252 56.4292C67.76 56.1099 68.0558 55.7852 68.4127 55.4552C68.7789 55.1252 69.1593 54.8059 69.5537 54.4972C69.9482 54.1991 70.2956 53.9383 70.5961 53.7148C70.7558 53.3422 70.9201 52.943 71.0892 52.5172C71.2676 52.0914 71.4367 51.6816 71.5963 51.2877C71.756 50.8832 71.8921 50.5159 72.0048 50.1859C72.1269 49.8559 72.2161 49.6004 72.2725 49.4195C72.1222 49.6217 71.9485 49.8772 71.7513 50.1859C71.5541 50.484 71.3381 50.8033 71.1033 51.144C70.8685 51.474 70.6243 51.788 70.3708 52.0861C70.1266 52.3841 69.873 52.629 69.6101 52.8206C69.3471 53.0015 69.0888 53.092 68.8353 53.092C68.4596 53.092 68.1967 52.9856 68.0464 52.7727C67.9055 52.5491 67.8351 52.2883 67.8351 51.9903C67.8351 51.7774 67.8586 51.5645 67.9055 51.3516C67.9619 51.1387 68.0323 50.9417 68.1168 50.7608C68.1732 50.633 68.2624 50.4627 68.3845 50.2498C68.5066 50.0369 68.6475 49.8187 68.8071 49.5951C68.9668 49.3716 69.1264 49.1853 69.2861 49.0363C69.4551 48.8872 69.6148 48.8127 69.765 48.8127C69.9435 48.8127 70.0796 48.8872 70.1735 49.0363C70.2674 49.1746 70.2768 49.2705 70.2017 49.3237C70.0515 49.4408 69.8636 49.6217 69.6382 49.8666C69.4222 50.1008 69.2062 50.3722 68.9902 50.6809C68.9339 50.7661 68.8634 50.8991 68.7789 51.0801C68.7038 51.2611 68.6334 51.458 68.5676 51.6709C68.5019 51.8732 68.469 52.0595 68.469 52.2298C68.469 52.3043 68.4784 52.3788 68.4972 52.4533C68.516 52.5172 68.5488 52.5651 68.5958 52.597C68.6709 52.6609 68.7555 52.6928 68.8494 52.6928C68.9808 52.6928 69.1264 52.6449 69.2861 52.5491C69.4551 52.4533 69.6148 52.3309 69.765 52.1819C70.2909 51.607 70.7605 51.0056 71.1737 50.3775C71.5869 49.7495 72.0236 49.1267 72.4838 48.5093C72.512 48.4029 72.5918 48.3497 72.7233 48.3497C72.8735 48.3497 73.0285 48.4029 73.1881 48.5093C73.3572 48.6051 73.4276 48.685 73.3994 48.7489C73.3149 48.9618 73.2022 49.2438 73.0614 49.5951C72.9299 49.9464 72.7843 50.3243 72.6247 50.7288C72.465 51.1333 72.3054 51.5378 72.1457 51.9424C71.9861 52.3362 71.8405 52.6928 71.709 53.0122C71.8217 52.9483 72.0236 52.7886 72.3148 52.5332C72.6059 52.2777 72.9252 51.969 73.2727 51.607C73.6201 51.2345 73.9347 50.8512 74.2165 50.4574C74.2728 50.3935 74.3151 50.3616 74.3433 50.3616C74.3996 50.3616 74.4278 50.4041 74.4278 50.4893C74.4278 50.5638 74.3996 50.649 74.3433 50.7448C74.2024 50.9577 74.0052 51.2078 73.7516 51.4953C73.5074 51.7827 73.2398 52.0754 72.9487 52.3735C72.6669 52.6609 72.3899 52.9217 72.1175 53.1559C71.8452 53.4007 71.6104 53.587 71.4132 53.7148C71.1221 54.4173 70.8403 55.0773 70.568 55.6947C70.2956 56.3228 70.0468 56.8284 69.8214 57.2116C69.6711 57.4778 69.488 57.7492 69.272 58.026C69.056 58.3027 68.8212 58.5316 68.5676 58.7126C68.3141 58.9042 68.0464 59 67.7647 59C67.7271 59 67.6895 58.9947 67.652 58.984C67.6144 58.984 67.5722 58.9787 67.5252 58.9681ZM67.5675 58.6168C67.6426 58.6168 67.7318 58.5902 67.8351 58.5369C67.9478 58.4837 68.0652 58.3986 68.1873 58.2815C68.5442 57.9515 68.8447 57.5629 69.0888 57.1158C69.333 56.6794 69.549 56.2163 69.7368 55.7267C69.9341 55.237 70.1313 54.7686 70.3285 54.3215C69.9622 54.6302 69.549 54.9921 69.0888 55.4073C68.6287 55.8331 68.2108 56.2536 67.8351 56.6687C67.6097 56.9242 67.4454 57.1744 67.3421 57.4192C67.2388 57.6747 67.1871 57.8982 67.1871 58.0899C67.1871 58.4411 67.3139 58.6168 67.5675 58.6168Z" fill="black"/>
</svg>
